# xmcd
#
# Track frame offsets: 
#        150
#        5739
#        22521
#        36151
#        58130
#        76969
#        98362
#        115713
#        134086
#        153098
#        169814
#        184196
#        201570
#        212675
#
# Disc length: 3090 seconds
#
# Revision: 3
# Processed by: cddbd v1.5.2PL0 Copyright (c) Steve Scherf et al.
# Submitted via: ExactAudioCopyFreeDBPlugin 1.0
#
DISCID=b30c100e
DTITLE=Westside Connection - Terrorist Threats
DYEAR=2003
DGENRE=Rap
TTITLE0=A Threat To The World (Intro)
TTITLE1=Call 9-1-1
TTITLE2=Potential Victims
TTITLE3=Gangsta Nation Feat. Nate Dogg
TTITLE4=Get Ignit
TTITLE5=Pimp The System Feat. Butch Cassidy
TTITLE6=Don't Get Outta Pocket Feat. K-Mac
TTITLE7=Izm
TTITLE8=So Many Rappers In Love
TTITLE9=Lights Out Feat. Knoc 'Turn 'Al
TTITLE10=Bangin' At The Party Feat. The Hood, K-Mac, Skoop and Young Sop
TTITLE10=rano
TTITLE11=You Gotta Have Heart
TTITLE12=Terrorist Threats
TTITLE13=Superstar (Double Murder =Double Platinum)
EXTD=
EXTT0=
EXTT1=
EXTT2=
EXTT3=
EXTT4=
EXTT5=
EXTT6=
EXTT7=
EXTT8=
EXTT9=
EXTT10=
EXTT11=
EXTT12=
EXTT13=
PLAYORDER=
